{
	"asset":{
		"generator":"Khronos glTF Blender I/O v4.0.44",
		"version":"2.0"
	},
	"extensionsUsed":[
		"EXT_texture_webp",
		"KHR_materials_emissive_strength"
	],
	"scene":0,
	"scenes":[
		{
			"name":"Scene",
			"nodes":[
				0
			]
		}
	],
	"nodes":[
		{
			"mesh":0,
			"name":"Action_Cube",
			"rotation":[
				0.7071068286895752,
				0,
				0,
				0.7071068286895752
			]
		}
	],
	"materials":[
		{
			"doubleSided":true,
			"emissiveFactor":[
				1,
				1,
				1
			],
			"emissiveTexture":{
				"index":0
			},
			"extensions":{
				"KHR_materials_emissive_strength":{
					"emissiveStrength":2.499999761581421
				}
			},
			"name":"DiceErran",
			"normalTexture":{
				"index":1
			},
			"pbrMetallicRoughness":{
				"baseColorTexture":{
					"index":2
				},
				"metallicRoughnessTexture":{
					"index":3
				},
				"roughnessFactor":1.5499999523162842
			}
		}
	],
	"meshes":[
		{
			"name":"Action_Cube",
			"primitives":[
				{
					"attributes":{
						"COLOR_0":0,
						"POSITION":1,
						"NORMAL":2,
						"TEXCOORD_0":3
					},
					"indices":4,
					"material":0
				}
			]
		}
	],
	"textures":[
		{
			"extensions":{
				"EXT_texture_webp":{
					"source":0
				}
			},
			"sampler":0,
			"source":1
		},
		{
			"extensions":{
				"EXT_texture_webp":{
					"source":2
				}
			},
			"sampler":0,
			"source":3
		},
		{
			"extensions":{
				"EXT_texture_webp":{
					"source":4
				}
			},
			"sampler":0,
			"source":5
		},
		{
			"extensions":{
				"EXT_texture_webp":{
					"source":6
				}
			},
			"sampler":0,
			"source":7
		}
	],
	"images":[
		{
			"mimeType":"image/webp",
			"name":"jd12_DefaultMaterial_Emissive_Utility - sRGB - Texture",
			"uri":"Textures/jd12_DefaultMaterial_Emissive_Utility%20-%20sRGB%20-%20Texture.webp"
		},
		{
			"mimeType":"image/png",
			"name":"jd12_DefaultMaterial_Emissive_Utility - sRGB - Texture",
			"uri":"Textures/jd12_DefaultMaterial_Emissive_Utility%20-%20sRGB%20-%20Texture.png"
		},
		{
			"mimeType":"image/webp",
			"name":"jd12_DefaultMaterial_Normal_Utility - Raw",
			"uri":"Textures/jd12_DefaultMaterial_Normal_Utility%20-%20Raw.webp"
		},
		{
			"mimeType":"image/png",
			"name":"jd12_DefaultMaterial_Normal_Utility - Raw",
			"uri":"Textures/jd12_DefaultMaterial_Normal_Utility%20-%20Raw.png"
		},
		{
			"mimeType":"image/webp",
			"name":"jd12_DefaultMaterial_BaseColor_Utility - sRGB - Texture",
			"uri":"Textures/jd12_DefaultMaterial_BaseColor_Utility%20-%20sRGB%20-%20Texture.webp"
		},
		{
			"mimeType":"image/png",
			"name":"jd12_DefaultMaterial_BaseColor_Utility - sRGB - Texture",
			"uri":"Textures/jd12_DefaultMaterial_BaseColor_Utility%20-%20sRGB%20-%20Texture.png"
		},
		{
			"mimeType":"image/webp",
			"name":"jd12_DefaultMaterial_Metallic_Utility - Raw-jd12_DefaultMaterial_Roughness_Utility - Raw",
			"uri":"Textures/jd12_DefaultMaterial_Metallic_Utility%20-%20Raw-jd12_DefaultMaterial_Roughness_Utility%20-%20Raw.webp"
		},
		{
			"mimeType":"image/png",
			"name":"jd12_DefaultMaterial_Metallic_Utility - Raw-jd12_DefaultMaterial_Roughness_Utility - Raw",
			"uri":"Textures/jd12_DefaultMaterial_Metallic_Utility%20-%20Raw-jd12_DefaultMaterial_Roughness_Utility%20-%20Raw.png"
		}
	],
	"accessors":[
		{
			"bufferView":0,
			"componentType":5123,
			"count":43663,
			"normalized":true,
			"type":"VEC4"
		},
		{
			"bufferView":1,
			"componentType":5126,
			"count":43663,
			"max":[
				52.020408630371094,
				51.98163986206055,
				52.457252502441406
			],
			"min":[
				-51.97948455810547,
				-52.01827621459961,
				-51.54265594482422
			],
			"type":"VEC3"
		},
		{
			"bufferView":2,
			"componentType":5126,
			"count":43663,
			"type":"VEC3"
		},
		{
			"bufferView":3,
			"componentType":5126,
			"count":43663,
			"type":"VEC2"
		},
		{
			"bufferView":4,
			"componentType":5123,
			"count":129336,
			"type":"SCALAR"
		}
	],
	"bufferViews":[
		{
			"buffer":0,
			"byteLength":349304,
			"byteOffset":0,
			"target":34962
		},
		{
			"buffer":0,
			"byteLength":523956,
			"byteOffset":349304,
			"target":34962
		},
		{
			"buffer":0,
			"byteLength":523956,
			"byteOffset":873260,
			"target":34962
		},
		{
			"buffer":0,
			"byteLength":349304,
			"byteOffset":1397216,
			"target":34962
		},
		{
			"buffer":0,
			"byteLength":258672,
			"byteOffset":1746520,
			"target":34963
		}
	],
	"samplers":[
		{
			"magFilter":9729,
			"minFilter":9987
		}
	],
	"buffers":[
		{
			"byteLength":2005192,
			"uri":"ErranD6.bin"
		}
	]
}
